# xmcd CD database file
# Copyright (C) 1995 Ti Kan
#
# Track frame offsets:
#	182
#	26545
#	44490
#	59002
#	80557
#	93500
#	108647
#	126727
#	143445
#	159335
#	177525
#	188875
#	209150
#	228117
#	240232
#	260597
#	273397
#
# Disc length: 3926 seconds
#
# Revision: 1
# Processed by: cddbd v1.4b41PL1 Copyright (c) Steve Scherf et al.
# Submitted via: xmcd 1.4
#
DISCID=fa0f5411
DTITLE=Alligator Records - Living Chicago Blues Vol. 1
DYEAR=1900
DGENRE=
TTITLE0=Your Turn To Cry
TTITLE1=Serves Me Right To Suffer
TTITLE2=Ain't That Just Like A Woman
TTITLE3=Feel Like Breaking Up Somebody's Home
TTITLE4=It' Alright
TTITLE5=Out Of Bad Luck
TTITLE6=Stoop Down Baby
TTITLE7=Sitting On Top Of The World
TTITLE8=My Baby's So Ugly
TTITLE9=Come Home, Darling
TTITLE10=Blues Won't Let Me Be
TTITLE11=One Room Country Shack
TTITLE12=Linda Lu
TTITLE13=Too Late
TTITLE14=Laundromat Blues
TTITLE15=One Day
TTITLE16=Woman In Trouble
EXTD=
EXTT0=
EXTT1=
EXTT2=
EXTT3=
EXTT4=
EXTT5=
EXTT6=
EXTT7=
EXTT8=
EXTT9=
EXTT10=
EXTT11=
EXTT12=
EXTT13=
EXTT14=
EXTT15=
EXTT16=
PLAYORDER=
